<svg viewBox="0 0 512 512" fill="none" xmlns="http://www.w3.org/2000/svg">
<circle cx="256" cy="256" r="256" fill="#472B58"/>
<path d="M512 256C512 192.229 488.198 130.753 445.254 83.6087C402.311 36.4641 343.317 7.04505 279.822 1.1108C216.327 -4.82346 152.904 13.1544 101.968 51.5249C51.0316 89.8953 16.2506 145.896 4.43355 208.562C-7.38347 271.229 4.61448 336.051 38.0786 390.336C71.5427 444.622 124.063 484.463 185.359 502.061C246.654 519.658 312.311 513.744 369.475 485.477C426.639 457.209 471.195 408.624 494.419 349.232L434.815 325.924C417.396 370.468 383.979 406.907 341.106 428.107C298.233 449.308 248.991 453.743 203.019 440.545C157.048 427.348 117.657 397.467 92.5589 356.752C67.4609 316.038 58.4624 267.422 67.3252 220.422C76.1879 173.422 102.274 131.422 140.476 102.644C178.678 73.8658 226.246 60.3824 273.867 64.8331C321.488 69.2838 365.733 91.3481 397.941 126.707C430.149 162.065 448 208.171 448 256H512Z" fill="#613F75"/>
<path d="M448 256C448 219.98 437.868 184.687 418.761 154.152C399.653 123.618 372.342 99.0737 339.948 83.3247C307.553 67.5758 271.382 61.257 235.567 65.0904C199.751 68.9238 165.736 82.7547 137.409 105.003C109.081 127.251 87.5832 157.019 75.3713 190.906C63.1593 224.792 60.7259 261.431 68.3491 296.635C75.9723 331.839 93.3447 364.188 118.481 389.987C143.618 415.786 175.505 433.994 210.498 442.53L221.874 395.898C195.628 389.496 171.713 375.84 152.861 356.49C134.009 337.141 120.979 312.879 115.262 286.476C109.544 260.073 111.369 232.594 120.528 207.179C129.687 181.764 145.811 159.438 167.057 142.752C188.302 126.066 213.813 115.693 240.675 112.818C267.536 109.943 294.665 114.682 318.961 126.494C343.257 138.305 363.74 156.713 378.07 179.614C392.401 202.515 400 228.985 400 256H448Z" fill="#7D82B8"/>
<path d="M400 256C400 236.364 395.984 216.936 388.199 198.909C380.414 180.883 369.025 164.639 354.731 151.176C340.438 137.713 323.542 127.316 305.082 120.623C286.622 113.93 266.988 111.083 247.388 112.258C227.787 113.432 208.634 118.603 191.105 127.452C173.576 136.301 158.043 148.641 145.459 163.714C132.875 178.788 123.506 196.275 117.93 215.102C112.353 233.93 110.686 253.698 113.03 273.194L148.773 268.895C147.014 254.274 148.265 239.447 152.447 225.327C156.63 211.207 163.656 198.091 173.094 186.786C182.532 175.481 194.182 166.226 207.329 159.589C220.475 152.952 234.84 149.074 249.541 148.193C264.241 147.313 278.966 149.448 292.811 154.467C306.656 159.487 319.328 167.285 330.049 177.382C340.769 187.479 349.311 199.662 355.149 213.182C360.988 226.702 364 241.273 364 256H400Z" fill="#F7A9A8"/>
<path d="M364 256C364 237.546 359.271 219.399 350.265 203.292C341.258 187.184 328.275 173.653 312.552 163.99C296.83 154.327 278.894 148.853 260.456 148.092C242.017 147.331 223.691 151.307 207.226 159.641L219.419 183.731C231.768 177.48 245.513 174.498 259.342 175.069C273.171 175.64 286.623 179.745 298.414 186.993C310.206 194.24 319.944 204.388 326.698 216.469C333.453 228.549 337 242.159 337 256H364Z" fill="#EF798A"/>
<path d="M242.28 263.68C243.88 267.52 244.68 271.64 244.68 276.04C244.68 280.36 243.88 284.4 242.28 288.16C240.2 293.36 236.8 297.48 232.08 300.52C227.36 303.48 221.8 304.96 215.4 304.96C209.16 304.96 203.64 303.44 198.84 300.4C194.04 297.28 190.56 293.08 188.4 287.8C187.12 284.6 186.36 281.08 186.12 277.24C186.12 276.28 186.6 275.8 187.56 275.8H204.84C205.8 275.8 206.32 276.28 206.4 277.24C206.56 279.24 207.04 281.16 207.84 283C208.48 284.6 209.44 285.84 210.72 286.72C212 287.52 213.52 287.92 215.28 287.92C218.64 287.92 221.16 286.4 222.84 283.36C223.96 281.36 224.52 278.72 224.52 275.44C224.52 272.24 223.96 269.44 222.84 267.04C221.16 264.08 218.6 262.6 215.16 262.6C214.28 262.6 213.28 262.92 212.16 263.56C211.12 264.12 209.76 265 208.08 266.2C207.68 266.44 207.36 266.56 207.12 266.56C206.64 266.56 206.28 266.32 206.04 265.84L197.52 253.84C197.28 253.44 197.16 253.12 197.16 252.88C197.16 252.4 197.36 252.04 197.76 251.8L216.24 237.76C216.4 237.6 216.44 237.44 216.36 237.28C216.36 237.12 216.24 237.04 216 237.04H189.72C189.32 237.04 188.96 236.92 188.64 236.68C188.4 236.36 188.28 236 188.28 235.6V221.44C188.28 221.04 188.4 220.72 188.64 220.48C188.96 220.16 189.32 220 189.72 220H242.04C242.44 220 242.76 220.16 243 220.48C243.32 220.72 243.48 221.04 243.48 221.44V237.4C243.48 238.12 243.2 238.72 242.64 239.2L228.12 250.6C227.96 250.76 227.88 250.92 227.88 251.08C227.96 251.24 228.12 251.36 228.36 251.44C234.76 253.12 239.4 257.2 242.28 263.68ZM280.302 286.24C280.142 286.4 280.102 286.56 280.182 286.72C280.262 286.88 280.422 286.96 280.662 286.96H311.262C311.662 286.96 311.982 287.12 312.222 287.44C312.542 287.68 312.702 288 312.702 288.4V302.56C312.702 302.96 312.542 303.32 312.222 303.64C311.982 303.88 311.662 304 311.262 304H254.982C254.582 304 254.222 303.88 253.902 303.64C253.662 303.32 253.542 302.96 253.542 302.56V289.24C253.542 288.52 253.782 287.92 254.262 287.44C259.062 282.96 265.422 276.52 273.342 268.12L280.542 260.56C287.822 253.04 291.462 247.56 291.462 244.12C291.462 241.8 290.582 239.88 288.822 238.36C287.142 236.84 284.942 236.08 282.222 236.08C279.502 236.08 277.302 236.84 275.622 238.36C273.942 239.88 273.102 241.88 273.102 244.36V247.24C273.102 247.64 272.942 248 272.622 248.32C272.382 248.56 272.062 248.68 271.662 248.68H254.382C253.982 248.68 253.622 248.56 253.302 248.32C253.062 248 252.942 247.64 252.942 247.24V241.24C253.262 236.76 254.742 232.84 257.382 229.48C260.022 226.12 263.502 223.56 267.822 221.8C272.142 219.96 276.942 219.04 282.222 219.04C288.142 219.04 293.302 220.16 297.702 222.4C302.182 224.56 305.582 227.52 307.902 231.28C310.302 235.04 311.502 239.2 311.502 243.76C311.502 247.04 310.702 250.36 309.102 253.72C307.502 257.08 305.102 260.64 301.902 264.4C299.662 267.12 297.142 269.88 294.342 272.68C291.542 275.48 287.662 279.24 282.702 283.96L280.302 286.24Z" fill="white"/>
</svg>
